<svg xmlns="http://www.w3.org/2000/svg" viewBox="0 0 144 144">
  <rect width="144" height="144" rx="16" fill="#0a0a0a"/>
  <!-- Main icon -->
  <g opacity="0.85">
    <path fill="#ffffff" d="
      M72 8 L84 18 L84 30 L60 30 L60 18 Z
      M60 34 L84 34 L84 46 L60 46 Z
      M60 50 L84 50 L84 62 L60 62 Z
      M54 66 L90 66 L90 82 L54 82 Z
    "/>
  </g>
  <!-- Mirror line -->
  <line x1="20" y1="90" x2="124" y2="90" stroke="#ffffff" stroke-width="1" opacity="0.15"/>
  <!-- Reflection -->
  <g opacity="0.15">
    <path fill="#ffffff" d="
      M54 98 L90 98 L90 114 L54 114 Z
      M60 118 L84 118 L84 130 L60 130 Z
      M60 134 L84 134 L84 146 L60 146 Z
      M60 150 L84 150 L84 162 L72 172 L60 162 Z
    "/>
  </g>
</svg>
