<svg xmlns="http://www.w3.org/2000/svg" viewBox="0 0 144 144">
  <rect width="144" height="144" rx="16" fill="#0a0a0a"/>
  <!-- Main icon (dimmed) -->
  <g opacity="0.35">
    <circle cx="72" cy="46" r="32" fill="#ffffff"/>
    <circle cx="72" cy="46" r="20" fill="#0a0a0a"/>
    <circle cx="72" cy="46" r="5" fill="#ffffff"/>
    <path d="M72,14 L62,28 Q62,30 64,30 L80,30 Q82,30 82,28 Z" fill="#0a0a0a"/>
  </g>
  <!-- Strike-through diagonal -->
  <line x1="40" y1="14" x2="104" y2="78" stroke="#ff4444" stroke-width="3.5" opacity="0.85" stroke-linecap="round"/>
  <!-- Mirror line -->
  <line x1="20" y1="90" x2="124" y2="90" stroke="#ffffff" stroke-width="1" opacity="0.15"/>
  <!-- Reflection -->
  <g opacity="0.08">
    <circle cx="72" cy="134" r="32" fill="#ffffff"/>
    <circle cx="72" cy="134" r="20" fill="#0a0a0a"/>
    <circle cx="72" cy="134" r="5" fill="#ffffff"/>
    <path d="M72,166 L62,152 Q62,150 64,150 L80,150 Q82,150 82,152 Z" fill="#0a0a0a"/>
    <line x1="40" y1="166" x2="104" y2="102" stroke="#ff4444" stroke-width="3.5" stroke-linecap="round"/>
  </g>
</svg>
