<svg xmlns="http://www.w3.org/2000/svg" viewBox="0 0 144 144">
  <rect width="144" height="144" rx="16" fill="#0a0a0a"/>
  <!-- Main icon (centered y=46) -->
  <g opacity="0.85">
    <!-- Back window -->
    <rect x="34" y="21" width="50" height="36" rx="4" fill="none" stroke="#ffffff" stroke-width="2.5"/>
    <line x1="34" y1="30" x2="84" y2="30" stroke="#ffffff" stroke-width="2.5"/>
    <circle cx="40" cy="25" r="2" fill="#ffffff"/>
    <circle cx="47" cy="25" r="2" fill="#ffffff"/>
    <circle cx="54" cy="25" r="2" fill="#ffffff"/>
    <!-- Front window -->
    <rect x="50" y="35" width="50" height="36" rx="4" fill="#0a0a0a" stroke="#ffffff" stroke-width="2.5"/>
    <line x1="50" y1="44" x2="100" y2="44" stroke="#ffffff" stroke-width="2.5"/>
    <circle cx="56" cy="39" r="2" fill="#ffffff"/>
    <circle cx="63" cy="39" r="2" fill="#ffffff"/>
    <circle cx="70" cy="39" r="2" fill="#ffffff"/>
  </g>
  <!-- Mirror line -->
  <line x1="20" y1="90" x2="124" y2="90" stroke="#ffffff" stroke-width="1" opacity="0.15"/>
  <!-- Reflection -->
  <g opacity="0.15">
    <rect x="50" y="109" width="50" height="36" rx="4" fill="#0a0a0a" stroke="#ffffff" stroke-width="2.5"/>
    <line x1="50" y1="136" x2="100" y2="136" stroke="#ffffff" stroke-width="2.5"/>
    <circle cx="56" cy="141" r="2" fill="#ffffff"/>
    <circle cx="63" cy="141" r="2" fill="#ffffff"/>
    <circle cx="70" cy="141" r="2" fill="#ffffff"/>
    <rect x="34" y="123" width="50" height="36" rx="4" fill="none" stroke="#ffffff" stroke-width="2.5"/>
    <line x1="34" y1="150" x2="84" y2="150" stroke="#ffffff" stroke-width="2.5"/>
    <circle cx="40" cy="155" r="2" fill="#ffffff"/>
    <circle cx="47" cy="155" r="2" fill="#ffffff"/>
    <circle cx="54" cy="155" r="2" fill="#ffffff"/>
  </g>
</svg>
