<svg xmlns="http://www.w3.org/2000/svg" viewBox="0 0 144 144">
  <rect width="144" height="144" rx="16" fill="#0a0a0a"/>
  <!-- Main icon (centered y=46) -->
  <g opacity="0.85">
    <path d="M42 46 Q42 12 72 12 Q102 12 102 46" fill="none" stroke="#ffffff" stroke-width="3" stroke-linecap="round"/>
    <rect x="36" y="42" width="16" height="24" rx="4" fill="#ffffff"/>
    <rect x="92" y="42" width="16" height="24" rx="4" fill="#ffffff"/>
    <path d="M42 66 Q42 76 52 76" fill="none" stroke="#ffffff" stroke-width="3" stroke-linecap="round"/>
    <circle cx="52" cy="76" r="4" fill="#ffffff"/>
  </g>
  <!-- Mirror line -->
  <line x1="20" y1="90" x2="124" y2="90" stroke="#ffffff" stroke-width="1" opacity="0.40"/>
  <!-- Reflection -->
  <g opacity="0.30">
    <rect x="36" y="114" width="16" height="24" rx="4" fill="#ffffff"/>
    <rect x="92" y="114" width="16" height="24" rx="4" fill="#ffffff"/>
    <path d="M42 134 Q42 168 72 168 Q102 168 102 134" fill="none" stroke="#ffffff" stroke-width="3" stroke-linecap="round"/>
    <path d="M42 114 Q42 104 52 104" fill="none" stroke="#ffffff" stroke-width="3" stroke-linecap="round"/>
    <circle cx="52" cy="104" r="4" fill="#ffffff"/>
  </g>
</svg>
