<svg xmlns="http://www.w3.org/2000/svg" viewBox="0 0 144 144">
  <rect width="144" height="144" rx="16" fill="#0a0a0a"/>
  <!-- Main icon (centered y=46) -->
  <g opacity="0.85">
    <rect x="58" y="60" width="28" height="16" rx="4" fill="#ffffff"/>
    <polygon points="58,60 86,60 100,42 44,42" fill="#ffffff"/>
    <path d="M50 36 Q72 20 94 36" fill="none" stroke="#ffffff" stroke-width="3" stroke-linecap="round"/>
    <path d="M44 26 Q72 6 100 26" fill="none" stroke="#ffffff" stroke-width="3" stroke-linecap="round"/>
    <path d="M38 16 Q72 -8 106 16" fill="none" stroke="#ffffff" stroke-width="3" stroke-linecap="round"/>
  </g>
  <!-- Mirror line -->
  <line x1="20" y1="90" x2="124" y2="90" stroke="#ffffff" stroke-width="1" opacity="0.40"/>
  <!-- Reflection -->
  <g opacity="0.30">
    <rect x="58" y="104" width="28" height="16" rx="4" fill="#ffffff"/>
    <polygon points="58,120 86,120 100,138 44,138" fill="#ffffff"/>
    <path d="M50 144 Q72 160 94 144" fill="none" stroke="#ffffff" stroke-width="3" stroke-linecap="round"/>
    <path d="M44 154 Q72 174 100 154" fill="none" stroke="#ffffff" stroke-width="3" stroke-linecap="round"/>
  </g>
</svg>
