<svg xmlns="http://www.w3.org/2000/svg" viewBox="0 0 144 144">
  <rect width="144" height="144" rx="16" fill="#0a0a0a"/>
  <!-- Main icon -->
  <g opacity="0.85">
    <!-- Chassis -->
    <rect x="22" y="16" width="100" height="56" rx="6" fill="none" stroke="#ffffff" stroke-width="3"/>
    <!-- Display -->
    <rect x="32" y="24" width="50" height="14" rx="2" fill="#ffffff"/>
    <!-- Volume knob (right side) -->
    <circle cx="100" cy="31" r="8" fill="none" stroke="#ffffff" stroke-width="2.5"/>
    <circle cx="100" cy="31" r="2" fill="#ffffff"/>
    <!-- Button row -->
    <rect x="32" y="48" width="10" height="6" rx="2" fill="#ffffff"/>
    <rect x="46" y="48" width="10" height="6" rx="2" fill="#ffffff"/>
    <rect x="60" y="48" width="10" height="6" rx="2" fill="#ffffff"/>
    <rect x="74" y="48" width="10" height="6" rx="2" fill="#ffffff"/>
  </g>
  <!-- Mirror line -->
  <line x1="20" y1="90" x2="124" y2="90" stroke="#ffffff" stroke-width="1" opacity="0.15"/>
  <!-- Reflection -->
  <g opacity="0.15">
    <rect x="22" y="108" width="100" height="56" rx="6" fill="none" stroke="#ffffff" stroke-width="3"/>
    <rect x="32" y="142" width="50" height="14" rx="2" fill="#ffffff"/>
    <circle cx="100" cy="149" r="8" fill="none" stroke="#ffffff" stroke-width="2.5"/>
    <circle cx="100" cy="149" r="2" fill="#ffffff"/>
    <rect x="32" y="126" width="10" height="6" rx="2" fill="#ffffff"/>
    <rect x="46" y="126" width="10" height="6" rx="2" fill="#ffffff"/>
    <rect x="60" y="126" width="10" height="6" rx="2" fill="#ffffff"/>
    <rect x="74" y="126" width="10" height="6" rx="2" fill="#ffffff"/>
  </g>
</svg>
