<svg xmlns="http://www.w3.org/2000/svg" viewBox="0 0 144 144">
  <rect width="144" height="144" rx="16" fill="#0a0a0a"/>
  <!-- Main icon (centered y=46) -->
  <g opacity="0.85" transform="translate(43,17) scale(0.113)">
    <path d="M391.17,103.47H352.54v109.7h38.63ZM285,103H246.37V212.75H285ZM120.83,0,24.31,91.42V420.58H140.14V512l96.53-91.42h77.25L487.69,256V0ZM449.07,237.75l-77.22,73.12H294.61l-67.6,64v-64H140.14V36.58H449.07Z" fill="#ffffff"/>
  </g>
  <!-- Mirror line -->
  <line x1="20" y1="90" x2="124" y2="90" stroke="#ffffff" stroke-width="1" opacity="0.40"/>
  <!-- Reflection -->
  <g opacity="0.30" transform="translate(43,163) scale(0.113,-0.113)">
    <path d="M391.17,103.47H352.54v109.7h38.63ZM285,103H246.37V212.75H285ZM120.83,0,24.31,91.42V420.58H140.14V512l96.53-91.42h77.25L487.69,256V0ZM449.07,237.75l-77.22,73.12H294.61l-67.6,64v-64H140.14V36.58H449.07Z" fill="#ffffff"/>
  </g>
</svg>
